<?xml version="1.0" encoding="UTF-8" standalone="no" ?>
<!DOCTYPE svg PUBLIC "-//W3C//DTD SVG 1.1//EN" "http://www.w3.org/Graphics/SVG/1.1/DTD/svg11.dtd">
<svg xmlns="http://www.w3.org/2000/svg" xmlns:xlink="http://www.w3.org/1999/xlink" version="1.1" width="1280" height="1024" viewBox="0 0 1280 1024" xml:space="preserve">
<desc>Created with Fabric.js 4.4.0</desc>
<defs>
</defs>
<g transform="matrix(1 0 0 1 640 512)" id="background-logo"  >
<rect style="stroke: none; stroke-width: 0; stroke-dasharray: none; stroke-linecap: butt; stroke-dashoffset: 0; stroke-linejoin: miter; stroke-miterlimit: 4; fill: rgb(255,255,255); fill-opacity: 0; fill-rule: nonzero; opacity: 1;"  paint-order="stroke"  x="-640" y="-512" rx="0" ry="0" width="1280" height="1024" />
</g>
<g transform="matrix(1.9211538461538462 0 0 1.9211538461538462 642.8408499661958 649.5600631182743)" id="text-logo"  >
<g style=""  paint-order="stroke"   >
		<g transform="matrix(1 0 0 1 0 0)" id="text-logo-path-0"  >
<linearGradient id="SVGID_1043120" gradientUnits="userSpaceOnUse" gradientTransform="matrix(1 0 0 1 5.050000000000011 -36.57)"  x1="0" y1="0" x2="0" y2="60">
<stop offset="0%" style="stop-color:rgb(48,35,174);stop-opacity: 1"/>
<stop offset="100%" style="stop-color:rgb(200,109,215);stop-opacity: 1"/>
</linearGradient>
<path style="stroke: none; stroke-width: 0; stroke-dasharray: none; stroke-linecap: butt; stroke-dashoffset: 0; stroke-linejoin: miter; stroke-miterlimit: 4; fill: url(#SVGID_1043120); fill-rule: nonzero; opacity: 1;"  paint-order="stroke"  transform=" translate(-139.345, 12.719999999999999)" d="M 17.49 0 L 5.05 0 L 5.05 -36.57 L 16.85 -36.57 Q 19.82 -36.57 21.63 -36.36 L 21.63 -36.36 Q 26.03 -35.76 28.39 -33.46 Q 30.74 -31.16 30.74 -27.35 L 30.74 -27.35 Q 30.74 -21.58 24.74 -19.56 L 24.74 -19.56 Q 32.06 -17.78 32.06 -10.82 L 32.06 -10.82 Q 32.06 -8.41 31.24 -6.47 Q 30.41 -4.53 29 -3.29 Q 27.59 -2.04 25.92 -1.29 Q 24.25 -0.54 22.36 -0.26 L 22.36 -0.26 Q 20.55 0 17.49 0 L 17.49 0 Z M 10.87 -16.64 L 10.87 -4.66 L 18.06 -4.66 Q 19.88 -4.66 20.57 -4.71 L 20.57 -4.71 Q 22.93 -4.92 24.42 -6.46 Q 25.9 -8 25.9 -10.56 L 25.9 -10.56 Q 25.9 -15.86 20.52 -16.48 L 20.52 -16.48 Q 19.46 -16.64 17.75 -16.64 L 17.75 -16.64 L 10.87 -16.64 Z M 10.87 -31.96 L 10.87 -21.14 L 17.24 -21.14 Q 18.71 -21.14 19.98 -21.35 L 19.98 -21.35 Q 24.58 -22.07 24.58 -26.71 L 24.58 -26.71 Q 24.58 -29.04 23.25 -30.3 Q 21.92 -31.57 19.62 -31.81 L 19.62 -31.81 Q 18.35 -31.96 16.85 -31.96 L 16.85 -31.96 L 10.87 -31.96 Z M 45.34 1.32 L 34 -28.13 L 40.53 -28.13 L 48.26 -4.35 L 55.95 -28.13 L 62.26 -28.13 L 50.8 1.81 Q 48.86 6.83 46.4 8.98 Q 43.94 11.13 40.11 11.13 L 40.11 11.13 Q 38.2 11.13 37.34 10.97 L 37.34 10.97 L 37.34 6.68 Q 38.04 6.73 39.21 6.73 L 39.21 6.73 Q 41.25 6.73 42.62 5.72 Q 43.99 4.71 44.93 2.33 L 44.93 2.33 L 45.34 1.32 Z M 67.21 -23.86 L 63.25 -23.86 L 63.25 -27.92 L 67.21 -27.92 L 67.21 -34.65 L 73 -34.65 L 73 -27.92 L 78.52 -27.92 L 78.52 -23.86 L 73 -23.86 L 73 -9.11 Q 73 -7.53 73.06 -6.78 L 73.06 -6.78 Q 73.21 -4.76 74.25 -4.14 L 74.25 -4.14 Q 74.95 -3.73 76.47 -3.7 L 76.47 -3.7 Q 77.2 -3.7 78.13 -3.8 L 78.13 -3.8 L 78.13 0.21 Q 75.9 0.52 73.83 0.52 L 73.83 0.52 Q 70.55 0.52 69.01 -0.75 Q 67.47 -2.02 67.26 -4.81 L 67.26 -4.81 Q 67.21 -5.77 67.21 -8.59 L 67.21 -8.59 L 67.21 -23.86 Z M 81.03 -14 L 81.03 -14 Q 81.03 -20.65 84.87 -24.77 Q 88.71 -28.88 94.82 -28.88 L 94.82 -28.88 Q 98.78 -28.88 101.67 -26.99 Q 104.55 -25.1 105.96 -21.96 Q 107.37 -18.81 107.37 -14.78 L 107.37 -14.78 Q 107.37 -13.46 107.27 -12.45 L 107.27 -12.45 L 87.08 -12.45 Q 87.7 -3.49 94.46 -3.49 L 94.46 -3.49 Q 97.05 -3.49 98.84 -4.99 Q 100.64 -6.5 101.08 -9.11 L 101.08 -9.11 L 106.96 -9.11 Q 106.08 -4.3 102.58 -1.77 Q 99.09 0.75 94.23 0.75 L 94.23 0.75 Q 88.32 0.75 84.68 -3.03 Q 81.03 -6.81 81.03 -14 Z M 87.13 -16.54 L 87.13 -16.54 L 101.39 -16.54 Q 101.08 -20.47 99.36 -22.55 Q 97.64 -24.64 94.61 -24.64 L 94.61 -24.64 Q 91.56 -24.64 89.58 -22.58 Q 87.6 -20.52 87.13 -16.54 Z M 120.08 0 L 110.63 -36.57 L 117.05 -36.57 L 124.04 -4.81 L 131.62 -36.05 L 139.64 -36.05 L 146.99 -4.66 L 154.42 -36.57 L 160.45 -36.57 L 150.49 0 L 142.8 0 L 135.5 -31.16 L 127.82 0 L 120.08 0 Z M 160.86 -14 L 160.86 -14 Q 160.86 -20.65 164.71 -24.77 Q 168.55 -28.88 174.66 -28.88 L 174.66 -28.88 Q 178.62 -28.88 181.5 -26.99 Q 184.39 -25.1 185.8 -21.96 Q 187.21 -18.81 187.21 -14.78 L 187.21 -14.78 Q 187.21 -13.46 187.1 -12.45 L 187.1 -12.45 L 166.92 -12.45 Q 167.54 -3.49 174.29 -3.49 L 174.29 -3.49 Q 176.88 -3.49 178.68 -4.99 Q 180.48 -6.5 180.92 -9.11 L 180.92 -9.11 L 186.79 -9.11 Q 185.91 -4.3 182.42 -1.77 Q 178.93 0.75 174.06 0.75 L 174.06 0.75 Q 168.16 0.75 164.51 -3.03 Q 160.86 -6.81 160.86 -14 Z M 166.97 -16.54 L 166.97 -16.54 L 181.23 -16.54 Q 180.92 -20.47 179.2 -22.55 Q 177.48 -24.64 174.45 -24.64 L 174.45 -24.64 Q 171.4 -24.64 169.42 -22.58 Q 167.44 -20.52 166.97 -16.54 Z M 190.96 -7.38 L 190.96 -7.38 Q 190.96 -17 206.59 -17 L 206.59 -17 L 208.38 -17 L 208.38 -17.7 Q 208.38 -19.72 208.27 -20.78 L 208.27 -20.78 Q 208.01 -24.64 203.36 -24.64 L 203.36 -24.64 Q 198.39 -24.64 197.9 -19.23 L 197.9 -19.23 L 192.07 -19.23 Q 192.33 -23.78 195.45 -26.33 Q 198.57 -28.88 203.46 -28.88 L 203.46 -28.88 Q 208.69 -28.88 211.2 -26.85 Q 213.71 -24.82 214.07 -21.04 L 214.07 -21.04 Q 214.23 -19.28 214.23 -17.05 L 214.23 -17.05 L 214.23 -7.14 Q 214.23 -3.91 214.74 0 L 214.74 0 L 208.97 0 L 208.45 -4.09 L 207.01 -1.06 Q 204.37 0.75 200.02 0.75 L 200.02 0.75 Q 196.11 0.75 193.54 -1.41 Q 190.96 -3.57 190.96 -7.38 Z M 197.09 -7.84 L 197.09 -7.84 Q 197.09 -5.67 198.43 -4.58 Q 199.76 -3.49 202.14 -3.49 L 202.14 -3.49 Q 204.94 -3.49 206.66 -5.36 Q 208.38 -7.22 208.38 -10.56 L 208.38 -10.56 L 208.38 -13.15 Q 207.08 -13.25 205.92 -13.25 L 205.92 -13.25 Q 203.95 -13.25 202.4 -12.97 L 202.4 -12.97 Q 199.91 -12.53 198.5 -11.23 Q 197.09 -9.94 197.09 -7.84 Z M 228.8 0 L 218.03 -28.13 L 224.45 -28.13 L 232.34 -4.3 L 240.13 -28.13 L 246.34 -28.13 L 235.58 0 L 228.8 0 Z M 247.3 -14 L 247.3 -14 Q 247.3 -20.65 251.14 -24.77 Q 254.98 -28.88 261.09 -28.88 L 261.09 -28.88 Q 265.05 -28.88 267.94 -26.99 Q 270.82 -25.1 272.23 -21.96 Q 273.64 -18.81 273.64 -14.78 L 273.64 -14.78 Q 273.64 -13.46 273.54 -12.45 L 273.54 -12.45 L 253.35 -12.45 Q 253.98 -3.49 260.73 -3.49 L 260.73 -3.49 Q 263.32 -3.49 265.12 -4.99 Q 266.92 -6.5 267.35 -9.11 L 267.35 -9.11 L 273.23 -9.11 Q 272.35 -4.3 268.86 -1.77 Q 265.36 0.75 260.5 0.75 L 260.5 0.75 Q 254.6 0.75 250.95 -3.03 Q 247.3 -6.81 247.3 -14 Z M 253.41 -16.54 L 253.41 -16.54 L 267.67 -16.54 Q 267.35 -20.47 265.63 -22.55 Q 263.91 -24.64 260.89 -24.64 L 260.89 -24.64 Q 257.83 -24.64 255.85 -22.58 Q 253.87 -20.52 253.41 -16.54 Z" stroke-linecap="round" />
</g>
</g>
</g>
<g transform="matrix(2.025586201828609 0 0 2.025586201828609 640 392.00409462557303)" id="logo-logo"  >
<g style=""  paint-order="stroke"   >
		<g transform="matrix(0.9410489182177008 0 0 -0.9410489182177008 58.910368067116735 5.999186853637809)"  >
<linearGradient id="SVGID_1043117" gradientUnits="userSpaceOnUse" gradientTransform="matrix(1 0 0 1 -202.06699999999998 -64.793)"  x1="0" y1="0" x2="0" y2="132">
<stop offset="0%" style="stop-color:rgb(48,35,174);stop-opacity: 1"/>
<stop offset="100%" style="stop-color:rgb(200,109,215);stop-opacity: 1"/>
</linearGradient>
<path style="stroke: none; stroke-width: 1; stroke-dasharray: none; stroke-linecap: butt; stroke-dashoffset: 0; stroke-linejoin: miter; stroke-miterlimit: 4; fill: url(#SVGID_1043117); fill-rule: nonzero; opacity: 1;"  paint-order="stroke"  transform=" translate(68.63550000000001, -0.9784999999999968)" d="M 0 0 C 3.998 0 7.25 -3.252 7.25 -7.25 C 7.25 -11.248000000000001 3.998 -14.5 0 -14.5 C -3.998 -14.5 -7.25 -11.248000000000001 -7.25 -7.25 C -7.25 -3.252 -3.998 0 0 0 M -137.886 50.75 C -133.888 50.75 -130.636 47.498 -130.636 43.5 C -130.636 39.502 -133.888 36.25 -137.886 36.25 C -140.851 36.25 -143.402 38.041 -144.524 40.597 L -144.524 46.403 C -143.402 48.958999999999996 -140.851 50.75 -137.886 50.75 M 7.253 50.293 L -76.069 50.293 L -76.069 34.293 L 7.253 34.293 C 30.16 34.293 48.796 15.657 48.796 -7.25 C 48.796 -30.157 30.16 -48.793 7.253 -48.793 L -144.524 -48.793 C -164.69400000000002 -48.793 -181.546 -34.342 -185.287 -15.25 L -21.831000000000017 -15.25 C -18.563000000000017 -24.141 -10.011000000000017 -30.5 -1.7763568394002505e-14 -30.5 C 12.819999999999983 -30.5 23.249999999999982 -20.07 23.249999999999982 -7.25 C 23.25 5.57 12.82 16 0 16 C -10.011 16 -18.563 9.641 -21.831 0.75 L -185.28699999999998 0.75 C -182.42699999999996 15.347 -171.89899999999997 27.223 -158.08399999999997 32.007999999999996 C -154.07799999999997 24.992999999999995 -146.527 20.249999999999996 -137.88599999999997 20.249999999999996 C -125.06499999999997 20.249999999999996 -114.63599999999997 30.679999999999996 -114.63599999999997 43.5 C -114.63599999999997 56.32 -125.06499999999997 66.75 -137.88599999999997 66.75 C -149.17999999999998 66.75 -158.61399999999998 58.653999999999996 -160.70199999999997 47.962 C -184.57799999999997 40.954 -202.06699999999998 18.863000000000003 -202.06699999999998 -7.25 C -202.06699999999998 -38.979 -176.254 -64.793 -144.52399999999997 -64.793 L 7.253 -64.793 C 38.982 -64.793 64.79599999999999 -38.979000000000006 64.79599999999999 -7.250000000000007 C 64.79599999999999 24.478999999999992 38.98199999999999 50.29299999999999 7.252999999999993 50.29299999999999" stroke-linecap="round" />
</g>
		<g transform="matrix(0.9410489182177008 0 0 -0.9410489182177008 -94.77844758498438 -46.01399842963178)"  >
<linearGradient id="SVGID_1043118" gradientUnits="userSpaceOnUse" gradientTransform="matrix(1 0 0 1 -23.25 -30.5)"  x1="0" y1="0" x2="0" y2="47">
<stop offset="0%" style="stop-color:rgb(48,35,174);stop-opacity: 1"/>
<stop offset="100%" style="stop-color:rgb(200,109,215);stop-opacity: 1"/>
</linearGradient>
<path style="stroke: none; stroke-width: 1; stroke-dasharray: none; stroke-linecap: butt; stroke-dashoffset: 0; stroke-linejoin: miter; stroke-miterlimit: 4; fill: url(#SVGID_1043118); fill-rule: nonzero; opacity: 1;"  paint-order="stroke"  transform=" translate(-29.566500000000005, 7.25)" d="M 0 0 C 3.998 0 7.25 -3.252 7.25 -7.25 C 7.25 -11.248000000000001 3.998 -14.5 0 -14.5 C -3.998 -14.5 -7.25 -11.248000000000001 -7.25 -7.25 C -7.25 -3.252 -3.998 0 0 0 M 0 -30.5 C 10.011 -30.5 18.563 -24.141 21.832 -15.25 L 82.38300000000001 -15.25 L 82.38300000000001 0.75 L 21.832 0.75 C 18.563 9.641 10.011 16 0 16 C -12.82 16 -23.25 5.57 -23.25 -7.25 C -23.25 -20.07 -12.82 -30.5 0 -30.5" stroke-linecap="round" />
</g>
		<g transform="matrix(0.9410489182177008 0 0 -0.9410489182177008 -134.7730266092366 13.742607877192228)"  >
<linearGradient id="SVGID_1043119" gradientUnits="userSpaceOnUse" gradientTransform="matrix(1 0 0 1 -23.25 -16)"  x1="0" y1="0" x2="0" y2="47">
<stop offset="0%" style="stop-color:rgb(48,35,174);stop-opacity: 1"/>
<stop offset="100%" style="stop-color:rgb(200,109,215);stop-opacity: 1"/>
</linearGradient>
<path style="stroke: none; stroke-width: 1; stroke-dasharray: none; stroke-linecap: butt; stroke-dashoffset: 0; stroke-linejoin: miter; stroke-miterlimit: 4; fill: url(#SVGID_1043119); fill-rule: nonzero; opacity: 1;"  paint-order="stroke"  transform=" translate(-29.566500000000005, -7.25)" d="M 0 0 C -3.998 0 -7.25 3.252 -7.25 7.25 C -7.25 11.248000000000001 -3.998 14.5 0 14.5 C 3.998 14.5 7.25 11.248000000000001 7.25 7.25 C 7.25 3.252 3.998 0 0 0 M 0 30.5 C -12.82 30.5 -23.25 20.07 -23.25 7.25 C -23.25 -5.57 -12.82 -16 0 -16 C 10.011 -16 18.563 -9.641 21.832 -0.75 L 82.38300000000001 -0.75 L 82.38300000000001 15.25 L 21.832 15.25 C 18.563 24.141 10.011 30.5 0 30.5" stroke-linecap="round" />
</g>
</g>
</g>
</svg>