<?xml version="1.0" standalone="no"?>
<!DOCTYPE svg PUBLIC "-//W3C//DTD SVG 20010904//EN"
 "http://www.w3.org/TR/2001/REC-SVG-20010904/DTD/svg10.dtd">
<svg version="1.0" xmlns="http://www.w3.org/2000/svg"
 width="463.000000pt" height="463.000000pt" viewBox="0 0 463.000000 463.000000"
 preserveAspectRatio="xMidYMid meet">
<metadata>
Created by potrace 1.14, written by Peter Selinger 2001-2017
</metadata>
<g transform="translate(0.000000,463.000000) scale(0.100000,-0.100000)"
fill="#000000" stroke="none">
<path d="M1062 3020 c-137 -62 -165 -245 -52 -338 86 -71 224 -51 291 43 l31
42 250 -1 c137 0 252 2 255 7 8 13 7 116 -1 124 -4 5 -120 8 -258 8 -240 0
-251 1 -262 20 -50 90 -167 134 -254 95z m103 -132 c14 -6 25 -14 26 -17 0 -3
2 -16 5 -29 6 -31 -36 -73 -68 -67 -29 6 -57 43 -52 68 4 23 34 56 51 56 7 1
24 -4 38 -11z"/>
<path d="M2144 2919 c-3 -5 -9 -7 -13 -4 -17 10 -92 -57 -113 -101 -19 -39
-32 -49 -96 -80 -134 -65 -240 -200 -269 -344 -13 -67 -4 -192 20 -265 9 -26
43 -90 50 -93 4 -2 7 -9 7 -15 0 -10 91 -102 131 -133 22 -17 130 -66 158 -72
14 -3 353 -7 752 -9 784 -3 769 -4 879 50 58 28 61 31 131 100 115 112 162
265 136 434 -7 41 -28 104 -42 123 -6 8 -17 28 -25 44 -25 49 -121 139 -185
173 -101 53 -154 59 -568 58 l-372 0 -3 -67 c-3 -60 -1 -68 15 -69 10 0 189
-1 398 -2 l380 -2 66 -32 c157 -78 236 -241 195 -402 -28 -108 -86 -180 -189
-234 l-61 -32 -725 -3 c-692 -2 -729 -1 -778 17 -83 30 -141 77 -187 150 -30
48 -49 103 -37 110 5 3 318 6 695 6 l686 -1 26 -37 c70 -104 209 -122 297 -39
91 85 84 226 -15 305 -53 42 -144 49 -208 15 -25 -14 -57 -43 -72 -65 l-27
-40 -696 0 -695 -1 7 27 c20 85 109 190 193 227 22 10 28 8 55 -20 46 -47 105
-71 165 -67 19 2 40 7 46 12 6 5 13 7 16 4 3 -3 25 12 50 34 135 119 58 335
-124 346 -26 2 -51 -1 -54 -6z m83 -144 c56 -39 9 -128 -55 -104 -43 16 -49
88 -9 107 30 15 39 14 64 -3z m1201 -459 c12 -27 -8 -72 -37 -81 -30 -9 -70
12 -77 41 -18 72 83 107 114 40z"/>
<path d="M698 2476 c-16 -8 -28 -13 -28 -10 0 11 -61 -59 -75 -86 -66 -127 35
-284 182 -284 62 1 135 41 161 89 10 17 18 32 20 34 1 3 118 5 260 5 l257 1 1
68 2 67 -32 1 c-17 0 -134 0 -259 1 -223 0 -229 1 -237 22 -11 26 -40 60 -60
69 -8 4 -26 14 -40 22 -32 19 -117 19 -152 1z m133 -164 c4 -52 -28 -87 -70
-77 -58 15 -63 93 -8 114 28 11 77 -13 78 -37z"/>
</g>
</svg>
